<?xml version="1.0" standalone="no"?>
<!DOCTYPE svg PUBLIC "-//W3C//DTD SVG 20010904//EN"
 "http://www.w3.org/TR/2001/REC-SVG-20010904/DTD/svg10.dtd">
<svg version="1.0" xmlns="http://www.w3.org/2000/svg"
 width="700.000000pt" height="700.000000pt" viewBox="0 0 700.000000 700.000000"
 preserveAspectRatio="xMidYMid meet">
<metadata>
Created by potrace 1.14, written by Peter Selinger 2001-2017
</metadata>
<g transform="translate(0.000000,700.000000) scale(0.100000,-0.100000)"
fill="#000000" stroke="none">
<path d="M2180 6955 c-7 -8 -17 -15 -22 -15 -8 0 -166 -86 -178 -97 -2 -2 17
-25 43 -50 26 -25 46 -50 44 -56 -6 -18 -53 -26 -205 -37 -166 -12 -221 -28
-308 -91 -292 -209 -358 -262 -485 -389 -113 -112 -151 -159 -231 -280 -139
-213 -194 -326 -321 -670 -36 -96 -92 -238 -125 -315 -72 -168 -105 -264 -133
-382 -43 -180 -50 -244 -56 -549 -6 -320 -8 -290 52 -721 8 -57 22 -117 32
-135 15 -28 18 -54 16 -164 -3 -154 5 -181 69 -240 l43 -39 1 -110 c0 -94 4
-120 26 -175 36 -92 91 -199 161 -315 68 -113 74 -121 211 -300 107 -139 132
-169 368 -429 84 -93 193 -219 242 -279 129 -159 218 -250 299 -303 72 -48
287 -134 334 -134 19 0 39 14 69 45 23 25 49 45 58 45 10 0 21 13 28 30 22 64
84 68 140 10 41 -44 42 -48 29 -69 -8 -12 -19 -12 -73 -2 -34 7 -71 15 -80 18
-24 6 -23 -23 3 -89 20 -51 22 -102 5 -140 -6 -12 5 -31 39 -67 96 -103 462
-253 850 -349 88 -22 183 -43 210 -47 28 -4 56 -13 64 -19 10 -8 177 -12 567
-14 526 -3 555 -2 591 16 21 11 52 22 68 26 128 31 501 199 672 303 253 155
502 373 682 598 259 323 464 736 591 1190 33 118 97 420 130 610 17 99 42 236
55 305 108 564 119 649 112 870 -4 145 -9 191 -31 270 -128 478 -409 1053
-705 1445 -155 206 -403 447 -616 597 -56 40 -244 158 -251 158 -2 0 -23 12
-45 26 -47 29 -257 135 -374 189 -122 55 -486 208 -645 271 -52 20 -102 43
-111 50 -13 12 -181 14 -956 14 -824 0 -942 -2 -953 -15z m-565 -1574 c8 -79
18 -68 -85 -91 -71 -15 -70 -17 -51 58 26 98 50 135 96 144 24 4 30 -12 40
-111z m1931 -245 l44 -43 0 -80 c0 -67 -4 -86 -23 -114 -12 -19 -34 -40 -49
-46 -43 -21 -46 -31 -36 -138 10 -106 3 -476 -10 -535 -7 -30 -12 -35 -37 -35
l-30 0 -8 80 c-4 44 -13 103 -18 130 -13 61 -2 378 15 432 7 23 -2 37 -39 56
-16 8 -45 31 -63 50 -27 27 -34 45 -39 89 -7 74 9 120 60 163 39 33 44 35 115
35 l75 0 43 -44z m-518 -139 l37 -37 0 -96 0 -95 -51 -47 c-49 -46 -51 -49
-53 -108 -2 -68 1 -73 84 -119 28 -16 83 -49 124 -74 l74 -46 -6 -100 c-7
-123 -11 -135 -47 -135 -33 0 -38 10 -48 101 l-7 62 -75 45 c-121 71 -179 112
-191 134 -7 13 -9 50 -4 108 l7 88 -33 18 c-70 35 -109 96 -109 169 0 53 16
89 57 126 47 44 64 50 136 46 63 -2 70 -5 105 -40z m1013 20 c94 -62 104 -214
19 -291 -21 -18 -43 -35 -51 -38 -11 -4 -13 -27 -11 -110 l4 -106 -36 -28
c-20 -16 -80 -54 -133 -86 l-98 -56 -2 -44 c-5 -74 -23 -118 -49 -118 -34 0
-43 27 -46 136 l-3 98 65 44 c57 38 116 72 182 107 20 10 23 20 33 97 5 42 4
48 -20 65 -95 65 -125 107 -125 172 0 53 15 89 53 130 41 42 59 50 128 50 42
1 64 -5 90 -22z m347 -769 c66 -33 92 -78 92 -156 0 -35 -6 -75 -14 -90 -8
-15 -156 -167 -328 -338 -275 -273 -322 -315 -383 -346 -38 -19 -86 -38 -105
-41 -19 -4 -156 -8 -305 -10 -300 -4 -309 -6 -359 -71 -33 -44 -76 -51 -76
-12 0 13 7 29 15 36 8 7 15 18 15 24 0 17 58 70 97 90 24 12 63 16 155 17 68
0 188 4 268 8 223 12 200 -2 588 384 248 248 322 327 322 346 0 32 -37 71 -67
71 -38 0 -62 -17 -163 -115 -52 -51 -141 -134 -196 -183 -56 -50 -112 -105
-125 -121 -13 -17 -35 -44 -47 -61 -47 -60 -66 -64 -277 -56 -104 3 -214 9
-242 12 -46 6 -53 10 -53 29 0 31 14 34 247 41 l201 7 32 30 c37 35 37 71 0
98 -23 17 -56 19 -415 21 l-390 3 -45 -24 c-25 -13 -73 -46 -106 -72 -67 -53
-76 -56 -93 -35 -14 17 -3 76 14 76 7 0 24 12 37 28 36 42 118 98 169 115 36
13 124 17 426 23 l380 7 56 -26 c38 -17 61 -35 72 -56 8 -17 24 -31 33 -31 10
0 98 82 200 185 100 102 196 192 214 200 48 21 105 18 156 -7z m-1728 -1483
c3 -90 9 -150 15 -150 6 0 34 9 64 19 77 27 199 19 272 -17 75 -37 155 -116
186 -185 23 -50 26 -71 27 -167 1 -105 0 -113 -32 -178 -61 -124 -122 -173
-251 -202 -154 -35 -261 -3 -370 110 -94 97 -98 120 -106 552 -3 194 -3 357 0
363 4 7 42 10 98 8 l92 -3 5 -150z m3150 6 c0 -83 4 -152 9 -155 5 -3 33 2 62
10 57 17 128 15 203 -7 60 -17 157 -118 184 -192 20 -53 22 -76 22 -292 0
-133 -4 -236 -9 -240 -12 -7 -161 -9 -167 -2 -3 3 -8 108 -12 234 l-7 230 -28
36 c-52 69 -154 68 -219 -1 l-38 -41 0 -230 0 -229 -27 -6 c-31 -6 -150 -2
-157 5 -8 8 -20 974 -12 1002 6 27 7 27 101 27 l95 0 0 -149z m-4579 96 c149
-38 264 -132 336 -276 l38 -76 0 -135 0 -135 -37 -75 c-63 -125 -197 -239
-321 -271 -40 -11 -413 -13 -429 -2 -10 6 -10 977 0 988 11 12 351 -3 413 -18z
m986 -239 c57 -21 163 -107 163 -133 0 -7 -76 -102 -170 -211 -93 -109 -169
-205 -170 -211 0 -18 74 -17 108 1 15 8 36 24 47 36 43 48 53 47 116 -16 33
-32 59 -66 59 -75 0 -20 -70 -83 -120 -108 -86 -44 -222 -53 -307 -21 -110 41
-182 113 -227 225 -49 122 -28 291 48 390 87 111 154 142 318 144 57 1 93 -5
135 -21z m1596 1 c97 -32 152 -79 201 -173 41 -78 41 -79 41 -190 0 -99 -3
-117 -27 -168 -66 -140 -195 -228 -338 -228 -157 0 -292 85 -357 225 -25 54
-28 70 -28 171 0 107 1 113 35 179 42 83 134 166 207 189 72 22 191 20 266 -5z
m1397 2 c27 -10 67 -33 89 -50 21 -17 43 -31 48 -31 5 0 25 16 43 35 25 26 42
35 60 33 l25 -3 0 -360 0 -360 -27 -3 c-22 -3 -32 4 -54 37 -15 23 -32 41 -38
41 -7 0 -32 -13 -57 -28 -97 -61 -129 -71 -225 -68 -159 6 -250 59 -315 186
-57 114 -61 263 -9 384 32 75 122 157 201 184 83 28 190 29 259 3z m-962 -48
l31 -38 28 18 c71 46 96 52 231 55 l132 4 0 -91 c0 -89 0 -91 -26 -97 -14 -4
-54 -4 -90 0 -75 8 -114 -5 -159 -53 l-30 -32 -5 -224 c-3 -123 -8 -226 -12
-230 -7 -8 -154 -12 -161 -5 -8 8 -20 706 -13 719 14 21 44 11 74 -26z"/>
<path d="M3401 5064 c-19 -16 -31 -35 -31 -50 0 -33 42 -74 75 -74 28 0 85 48
85 72 0 16 -34 50 -67 67 -29 15 -27 15 -62 -15z"/>
<path d="M2882 4915 c-40 -33 -41 -63 -3 -99 24 -23 35 -27 58 -22 37 10 73
44 73 71 0 26 -36 61 -71 70 -19 5 -34 0 -57 -20z"/>
<path d="M3933 4928 c-12 -6 -27 -24 -34 -40 -10 -25 -9 -33 8 -56 11 -15 32
-31 47 -36 23 -9 31 -5 61 24 19 19 35 39 35 46 0 15 -67 74 -83 73 -7 0 -22
-5 -34 -11z"/>
<path d="M2770 2443 c-81 -54 -110 -104 -110 -192 0 -176 212 -259 327 -128
88 100 60 256 -57 315 -53 26 -125 29 -160 5z"/>
<path d="M1017 2673 c-4 -3 -7 -138 -7 -300 l0 -293 73 0 c105 0 169 22 230
78 68 64 97 128 97 217 0 126 -61 219 -184 280 -40 20 -65 25 -126 25 -42 0
-80 -3 -83 -7z"/>
<path d="M1978 2440 c-63 -34 -82 -72 -86 -172 -5 -111 7 -114 74 -21 26 36
55 74 63 83 9 9 23 27 31 40 8 12 23 32 32 45 13 16 14 25 6 33 -18 18 -79 13
-120 -8z"/>
<path d="M3599 2447 c-41 -19 -59 -37 -85 -89 -64 -126 3 -277 133 -297 95
-14 176 37 211 135 33 91 -7 203 -88 244 -44 22 -129 26 -171 7z"/>
<path d="M5003 2441 c-57 -26 -103 -105 -103 -176 0 -65 37 -144 81 -176 28
-20 46 -24 106 -24 65 0 75 3 110 31 53 43 83 98 83 157 0 66 -19 104 -78 160
-48 44 -55 47 -104 47 -30 0 -71 -9 -95 -19z"/>
</g>
</svg>
